<mxfile host="app.diagrams.net" agent="Mozilla/5.0 (Windows NT 10.0; Win64; x64) AppleWebKit/537.36 (KHTML, like Gecko) Chrome/131.0.0.0 Safari/537.36" version="24.8.6" pages="2">
  <diagram name="第 1 页" id="7u-G6cLr_pmwX1JVvdBD">
    <mxGraphModel dx="1114" dy="593" grid="1" gridSize="10" guides="1" tooltips="1" connect="1" arrows="1" fold="1" page="1" pageScale="1" pageWidth="827" pageHeight="1169" math="0" shadow="0">
      <root>
        <mxCell id="0" />
        <mxCell id="1" parent="0" />
      </root>
    </mxGraphModel>
  </diagram>
  <diagram id="d0qJHxrqF3V9uxuC65oe" name="第 2 页">
    <mxGraphModel dx="1114" dy="593" grid="1" gridSize="10" guides="1" tooltips="1" connect="1" arrows="1" fold="1" page="1" pageScale="1" pageWidth="827" pageHeight="1169" math="0" shadow="0">
      <root>
        <mxCell id="0" />
        <mxCell id="1" parent="0" />
        <mxCell id="h7k0XdrmtbO4esQwF4u3-4" style="edgeStyle=orthogonalEdgeStyle;rounded=0;orthogonalLoop=1;jettySize=auto;html=1;" edge="1" parent="1" source="CynQNnbA36gv-lPlbwrl-1" target="h7k0XdrmtbO4esQwF4u3-3">
          <mxGeometry relative="1" as="geometry" />
        </mxCell>
        <mxCell id="CynQNnbA36gv-lPlbwrl-1" value="用户提问" style="rounded=1;whiteSpace=wrap;html=1;" parent="1" vertex="1">
          <mxGeometry x="80" y="150" width="150" height="80" as="geometry" />
        </mxCell>
        <mxCell id="h7k0XdrmtbO4esQwF4u3-1" value="报表寻址的流程" style="text;html=1;align=center;verticalAlign=middle;whiteSpace=wrap;rounded=0;" vertex="1" parent="1">
          <mxGeometry x="120" y="70" width="120" height="30" as="geometry" />
        </mxCell>
        <mxCell id="h7k0XdrmtbO4esQwF4u3-6" style="edgeStyle=orthogonalEdgeStyle;rounded=0;orthogonalLoop=1;jettySize=auto;html=1;entryX=0.5;entryY=0;entryDx=0;entryDy=0;" edge="1" parent="1" source="h7k0XdrmtbO4esQwF4u3-3" target="h7k0XdrmtbO4esQwF4u3-5">
          <mxGeometry relative="1" as="geometry" />
        </mxCell>
        <mxCell id="h7k0XdrmtbO4esQwF4u3-3" value="展示报表核查结果" style="rounded=1;whiteSpace=wrap;html=1;" vertex="1" parent="1">
          <mxGeometry x="320" y="150" width="150" height="80" as="geometry" />
        </mxCell>
        <mxCell id="h7k0XdrmtbO4esQwF4u3-11" style="edgeStyle=orthogonalEdgeStyle;rounded=0;orthogonalLoop=1;jettySize=auto;html=1;" edge="1" parent="1" source="h7k0XdrmtbO4esQwF4u3-5" target="h7k0XdrmtbO4esQwF4u3-7">
          <mxGeometry relative="1" as="geometry" />
        </mxCell>
        <mxCell id="h7k0XdrmtbO4esQwF4u3-13" style="edgeStyle=orthogonalEdgeStyle;rounded=0;orthogonalLoop=1;jettySize=auto;html=1;" edge="1" parent="1" source="h7k0XdrmtbO4esQwF4u3-5" target="h7k0XdrmtbO4esQwF4u3-9">
          <mxGeometry relative="1" as="geometry" />
        </mxCell>
        <mxCell id="h7k0XdrmtbO4esQwF4u3-14" style="edgeStyle=orthogonalEdgeStyle;rounded=0;orthogonalLoop=1;jettySize=auto;html=1;" edge="1" parent="1" source="h7k0XdrmtbO4esQwF4u3-5" target="h7k0XdrmtbO4esQwF4u3-10">
          <mxGeometry relative="1" as="geometry" />
        </mxCell>
        <mxCell id="h7k0XdrmtbO4esQwF4u3-5" value="继续提问" style="rounded=1;whiteSpace=wrap;html=1;" vertex="1" parent="1">
          <mxGeometry x="320" y="320" width="150" height="80" as="geometry" />
        </mxCell>
        <mxCell id="h7k0XdrmtbO4esQwF4u3-7" value="任务查看" style="rounded=1;whiteSpace=wrap;html=1;" vertex="1" parent="1">
          <mxGeometry x="44" y="480" width="150" height="80" as="geometry" />
        </mxCell>
        <mxCell id="h7k0XdrmtbO4esQwF4u3-8" value="重跑任务" style="rounded=1;whiteSpace=wrap;html=1;" vertex="1" parent="1">
          <mxGeometry x="234" y="480" width="150" height="80" as="geometry" />
        </mxCell>
        <mxCell id="h7k0XdrmtbO4esQwF4u3-9" value="血缘查看" style="rounded=1;whiteSpace=wrap;html=1;" vertex="1" parent="1">
          <mxGeometry x="434" y="480" width="150" height="80" as="geometry" />
        </mxCell>
        <mxCell id="h7k0XdrmtbO4esQwF4u3-10" value="稽核结果查看" style="rounded=1;whiteSpace=wrap;html=1;" vertex="1" parent="1">
          <mxGeometry x="634" y="480" width="150" height="80" as="geometry" />
        </mxCell>
        <mxCell id="h7k0XdrmtbO4esQwF4u3-12" style="edgeStyle=orthogonalEdgeStyle;rounded=0;orthogonalLoop=1;jettySize=auto;html=1;entryX=0.439;entryY=0.001;entryDx=0;entryDy=0;entryPerimeter=0;" edge="1" parent="1" source="h7k0XdrmtbO4esQwF4u3-5" target="h7k0XdrmtbO4esQwF4u3-8">
          <mxGeometry relative="1" as="geometry" />
        </mxCell>
      </root>
    </mxGraphModel>
  </diagram>
</mxfile>
